<svg width="36" height="37" viewBox="0 0 36 37" fill="none" xmlns="http://www.w3.org/2000/svg">
<path d="M35.9998 18.5401C35.9584 28.8653 27.9609 37.0212 17.9046 37C7.98787 36.9787 -0.0872299 28.5463 0.000711544 18.3008C0.0834799 8.16702 8.25169 -0.0686863 18.1477 0.000431899C28.0954 0.0748669 36.0464 8.32652 35.9998 18.5401ZM29.5542 18.5188C29.5542 18.5188 29.5542 18.5188 29.5594 18.5188C29.5594 16.7164 29.5956 14.9087 29.549 13.1063C29.4559 9.37393 26.8435 6.71022 23.2328 6.68363C19.8237 6.65173 16.4147 6.65705 13.0057 6.67832C9.12593 6.7049 6.50321 9.3952 6.47217 13.3828C6.4463 16.7802 6.45148 20.1776 6.47217 23.5751C6.49803 27.5999 9.05868 30.2849 12.9591 30.338C16.3682 30.3806 19.7772 30.3752 23.1862 30.3327C26.8435 30.2849 29.4145 27.6849 29.5387 23.9366C29.5956 22.1342 29.549 20.3265 29.549 18.5241L29.5542 18.5188Z" fill="white"/>
<path d="M8.63639 18.5252C8.63639 16.8823 8.6157 15.2341 8.63639 13.5912C8.67778 10.6882 10.1677 8.92836 12.9457 8.8433C16.5048 8.73164 20.0691 8.76354 23.6334 8.86456C25.8475 8.92836 27.5237 10.7095 27.5754 12.9957C27.653 16.7068 27.6582 20.4286 27.5806 24.1397C27.534 26.4046 25.8424 28.1751 23.6076 28.2389C19.9967 28.3453 16.3755 28.3559 12.7646 28.2389C10.2349 28.1539 8.75538 26.41 8.64674 23.7888C8.64674 23.6824 8.64674 23.5761 8.64674 23.4698C8.64674 21.8269 8.64674 20.1787 8.64674 18.5358H8.63639V18.5252ZM18.0361 24.9957C21.5279 25.0116 24.4249 22.1299 24.4611 18.6049C24.4973 15.0905 21.6262 12.1238 18.155 12.0919C14.7614 12.06 11.8955 14.931 11.8438 18.4135C11.7869 22.013 14.5856 24.9797 18.0412 25.001L18.0361 24.9957ZM23.6334 11.054C23.0304 11.5642 23.0282 11.8154 23.0696 12.3417C23.1058 12.783 23.4454 13.3085 24.0851 13.3085C24.7249 13.3085 25.3173 12.9598 25.3949 12.4175C25.4518 11.9974 25.3949 11.4154 24.7697 11.054L24.0851 10.884L23.6334 11.054Z" fill="white"/>
<path d="M17.9717 14.3293C20.1962 14.308 22.0999 16.1583 22.1517 18.386C22.2034 20.736 20.3617 22.6979 18.0855 22.7192C15.7783 22.7404 13.916 20.8477 13.9263 18.503C13.9367 16.2167 15.7473 14.3506 17.9717 14.3346V14.3293Z" fill="white"/>
</svg>
