<svg width="66" height="66" viewBox="0 0 66 66" fill="none" xmlns="http://www.w3.org/2000/svg">
<path d="M65.9795 44.5634C65.9399 56.8331 56.7665 65.9794 44.5134 65.986C36.8305 65.986 29.1475 66.0123 21.458 65.986C9.1719 65.9398 0.0381033 56.7936 0.0117241 44.537C-0.00146551 40.6953 0.0117241 36.8602 0.0117241 33.0185C0.0117241 28.9594 -0.0146551 24.9002 0.0117241 20.8411C0.0908616 9.61913 9.27082 0.235648 20.4952 0.084089C28.8376 -0.0345225 37.18 -0.0213434 45.5224 0.084089C56.7138 0.235648 65.9135 9.62572 65.9729 20.8675C66.0124 28.7617 65.9993 36.6626 65.9795 44.5634Z" fill="#C02A22"/>
<path d="M39.5082 42.876C39.9962 42.8826 40.5106 42.8957 41.0448 42.9089C40.5436 42.9419 40.0292 42.9682 39.5016 43.0078C39.5016 42.9682 39.5082 42.9221 39.5082 42.876Z" fill="white"/>
<path d="M49.2488 38.0531C49.5455 43.0809 44.9028 43.0216 41.0448 42.9096C40.5107 42.8964 39.9963 42.8832 39.5082 42.8766C39.5082 42.9227 39.5016 42.9689 39.5016 43.0084C37.4177 43.1468 35.1689 43.3774 32.9992 44.1484C30.7438 44.9391 28.5807 46.3098 26.7671 48.7281C26.6616 46.5997 26.589 45.0248 26.4901 43.0084C26.4901 42.9689 26.4835 42.9227 26.4835 42.8766C25.9955 42.8832 25.4811 42.8964 24.9469 42.9096H24.9074C21.0626 43.0216 16.4528 43.0611 16.743 38.0531C16.71 32.6826 16.6968 27.3056 16.7496 21.9285C16.7826 18.838 18.0092 17.4608 21.023 17.3356H21.0428C21.1549 17.329 21.267 17.3224 21.3792 17.3224C21.6429 17.3224 21.9001 17.3158 22.1639 17.3158C22.1837 17.3158 22.2035 17.3224 22.2233 17.3224C23.8918 17.3027 25.5603 17.2895 27.2287 17.2829C31.0735 17.2631 34.9183 17.2631 38.7696 17.2829C40.4381 17.2895 42.1066 17.3027 43.7751 17.3224C43.7949 17.3224 43.8146 17.3158 43.8344 17.3158C44.0982 17.3158 44.3554 17.3224 44.6192 17.3224C44.7313 17.3224 44.8434 17.329 44.9555 17.3356C44.9555 17.329 44.9687 17.329 44.9753 17.3356C47.9891 17.4608 49.2158 18.838 49.2422 21.9285C49.2949 27.3056 49.2817 32.6826 49.2422 38.0531H49.2488Z" fill="white"/>
<path d="M23.2257 28.3311H39.7127C40.9525 28.3311 40.9591 26.4004 39.7127 26.4004H23.2257C21.9859 26.4004 21.9793 28.3311 23.2257 28.3311Z" fill="#C02A22"/>
<path d="M23.2257 32.2847H34.4368C35.6766 32.2847 35.6832 30.354 34.4368 30.354H23.2257C21.9859 30.354 21.9793 32.2847 23.2257 32.2847Z" fill="#C02A22"/>
</svg>
