<svg width="37" height="37" viewBox="0 0 37 37" fill="none" xmlns="http://www.w3.org/2000/svg">
<g clip-path="url(#clip0_303_840)">
<path d="M0.260742 19.7563V19.7577H0.262101V19.7563H0.260742Z" fill="white"/>
<path d="M36.9854 17.6941C36.9457 17.188 36.9226 16.6794 36.8626 16.1757C36.7868 15.541 36.6842 14.9088 36.5199 14.2907C36.395 13.8203 36.286 13.3474 36.108 12.8867C36.0066 12.6239 35.9385 12.3214 35.8436 12.044C35.5504 11.1899 35.1498 10.3816 34.7212 9.58877C34.2662 8.74684 33.7265 7.95927 33.1454 7.19886C32.5286 6.39222 31.8369 5.65452 31.098 4.96103C30.7392 4.62402 30.3511 4.31904 29.9626 4.01407C29.6407 3.76101 29.3151 3.50673 28.9842 3.26623C28.339 2.79823 27.6473 2.4012 26.938 2.0362C26.3874 1.75231 25.8229 1.49844 25.2459 1.27539C24.7147 1.07018 24.1786 0.87957 23.63 0.72181C22.2249 0.317882 20.7915 0.0786072 19.3333 0.0173691C18.2344 -0.0284581 17.136 0.0149358 16.0423 0.164989C14.9649 0.313015 13.9074 0.545396 12.8738 0.877947C12.4014 1.02962 11.9428 1.2251 11.4797 1.40232C10.8467 1.64444 10.2506 1.95103 9.65575 2.2625C8.95343 2.63074 8.28801 3.05981 7.65016 3.53633C7.17046 3.89443 6.69481 4.25497 6.24998 4.65443C5.69282 5.15529 5.16892 5.68818 4.67057 6.25028C4.31697 6.64934 3.96378 7.04799 3.64668 7.47423C3.29471 7.9475 2.95937 8.43417 2.6593 8.94313C2.21204 9.70151 1.80329 10.4802 1.45659 11.2896C1.17193 11.9552 0.933908 12.6381 0.738053 13.3348C0.5276 14.0823 0.321607 14.8297 0.219017 15.6027C0.13589 16.2288 0.0478967 16.8554 0.0187009 17.4852C-0.0109004 18.1325 -0.000357479 18.7822 0.0187009 19.4303C0.0255943 19.661 0.0146459 19.8999 0.0876354 20.127C0.106694 20.8063 0.220638 21.4746 0.357697 22.1365C0.513407 22.8896 0.699531 23.6346 0.963104 24.3638C1.12003 24.7981 1.25587 25.2446 1.43713 25.6697C2.03929 27.083 2.80082 28.4035 3.72657 29.6355C4.72409 30.9629 5.87895 32.1256 7.18303 33.146C7.86913 33.6829 8.59537 34.1607 9.35122 34.5938C10.2425 35.1048 11.1683 35.5448 12.1341 35.8932C13.0887 36.2375 14.0647 36.5112 15.0659 36.6937C16.0212 36.8677 16.9815 36.993 17.9518 36.9991C18.631 37.0032 19.3086 36.9942 19.9894 36.9395C20.7088 36.8811 21.4208 36.7959 22.1256 36.6605C23.364 36.4224 24.563 36.0461 25.7252 35.555C25.7475 35.546 25.7702 35.5371 25.7925 35.5282L25.8035 35.5229C25.8241 35.484 25.8635 35.488 25.8983 35.4815C25.9101 35.4811 25.9186 35.4755 25.9243 35.4649C25.964 35.4223 26.0111 35.3988 26.0711 35.4073C26.08 35.4081 26.0869 35.4041 26.091 35.396C26.4563 35.1948 26.8261 35.0026 27.2109 34.8412L27.2247 34.8327C27.303 34.8594 27.3715 34.8647 27.4482 34.8079C27.6513 34.6575 27.8735 34.5362 28.0933 34.4105C28.249 34.3217 28.4372 34.2621 28.5126 34.0698L28.5191 34.0658C28.6063 34.0646 28.7028 34.0792 28.7093 33.9478L28.723 33.9368C28.7818 33.9502 28.8309 33.9478 28.8297 33.8679C28.8382 33.8687 28.8435 33.8654 28.8455 33.8569C28.8564 33.8484 28.8674 33.8395 28.8787 33.831C29.4225 33.4692 29.933 33.0637 30.4371 32.648C31.8081 31.5181 32.9426 30.179 33.9373 28.7149C34.4835 27.9103 34.945 27.0575 35.3497 26.1738C35.5431 25.752 35.7321 25.3278 35.8659 24.8821C35.9376 24.7799 35.9786 24.6675 35.9814 24.5418C36.7884 22.3287 37.071 20.0386 36.9854 17.6941ZM0.328095 19.7271C0.326068 19.7304 0.323635 19.7336 0.320796 19.736C0.307009 19.749 0.284302 19.7531 0.261594 19.7563V19.7571H0.260783V19.7563H0.261594C0.263216 19.7438 0.262405 19.7304 0.262405 19.7174C0.262405 19.7137 0.262405 19.7105 0.26281 19.7073C0.26281 19.7024 0.263621 19.6971 0.264838 19.6922C0.266865 19.6829 0.27092 19.6748 0.278219 19.6679C0.28268 19.6639 0.288762 19.6602 0.296466 19.657C0.304171 19.6541 0.331339 19.6752 0.332961 19.6878C0.3358 19.7052 0.333772 19.7178 0.328095 19.7271ZM26.9186 19.0965C26.8651 19.0993 26.8557 19.0555 26.8569 19.015C26.8606 18.9197 26.8375 18.8211 26.9141 18.7262C26.934 18.8203 26.9563 18.9144 26.9725 19.0093C26.979 19.0486 26.9721 19.0941 26.9186 19.0965ZM27.2815 13.523C27.1748 14.3921 27.0528 15.2588 26.9275 16.125C26.8363 16.7561 26.7288 17.3851 26.6299 18.0149C26.6213 18.0676 26.6213 18.122 26.6177 18.1755C26.4539 19.1602 26.2933 20.1457 26.125 21.1299C25.9957 21.8867 25.8444 22.6398 25.7244 23.3978C25.578 24.3232 25.4057 25.2434 25.2321 26.1636C25.1567 26.5631 25.0431 26.9508 24.8509 27.3117C24.5014 27.9683 23.9966 28.1662 23.2306 27.9659C22.7756 27.8467 22.3713 27.6216 22.0007 27.3499C21.0421 26.6483 20.0365 26.0168 19.0572 25.3464C18.1842 24.7482 17.3018 24.1634 16.428 23.5665C16.1652 23.3872 15.9276 23.1784 15.7613 22.8973C15.5983 22.6219 15.5995 22.3486 15.7431 22.0692C15.8416 21.8765 15.9673 21.7034 16.1169 21.5476C16.1806 21.5091 16.2341 21.4625 16.2426 21.3822C16.458 21.1806 16.6737 20.9791 16.889 20.7775C16.9004 20.7706 16.9141 20.7661 16.9235 20.7572C18.2896 19.4696 19.6577 18.1844 21.0194 16.8919C21.3848 16.5448 21.7538 16.2001 22.0709 15.8055C22.1678 15.7385 22.2298 15.6408 22.2927 15.5463C22.3738 15.425 22.3442 15.2973 22.2777 15.1825C22.2168 15.0771 22.1057 15.0552 21.9942 15.0633C21.8718 15.0718 21.7586 15.114 21.6544 15.1825C21.2339 15.4587 20.8195 15.7471 20.3945 16.0115C18.9684 16.8988 17.5962 17.8656 16.194 18.7883C15.3433 19.3483 14.5059 19.9279 13.658 20.4924C13.1499 20.8302 12.6151 21.1109 11.9975 21.1948C11.5251 21.2589 11.0701 21.1611 10.616 21.0573C9.49112 20.8006 8.39587 20.4437 7.31076 20.0556C7.16397 20.0029 7.02731 19.9291 6.89837 19.8419C6.62182 19.6541 6.54112 19.438 6.62385 19.1099C6.73941 18.843 6.97136 18.695 7.20898 18.566C7.89589 18.1925 8.63471 17.9338 9.34757 17.6175C10.0933 17.2865 10.8406 16.9596 11.59 16.6368C12.6877 16.164 13.776 15.6704 14.8838 15.2206C15.209 15.0888 15.5221 14.9262 15.8432 14.7843C16.0131 14.7092 16.1899 14.6513 16.3615 14.5766C17.4368 14.1094 18.5159 13.6504 19.5981 13.1998C20.476 12.8344 21.3633 12.4917 22.2412 12.1271C23.3271 11.6765 24.4211 11.2479 25.5464 10.9044C25.9121 10.7924 26.2836 10.7117 26.6757 10.7941C27.1562 10.8946 27.3829 11.1424 27.4218 11.6327C27.4725 12.2707 27.3581 12.896 27.2815 13.523ZM16.6206 20.7179C16.6206 20.7179 16.6234 20.7191 16.6246 20.7195C16.6246 20.7195 16.6222 20.7187 16.6206 20.7179ZM18.0171 17.8113L18.0179 17.8105V17.8113H18.0171Z" fill="white"/>
<path d="M18.0171 17.8114H18.0179V17.8105L18.0171 17.8114ZM0.260742 19.7564V19.7572H0.261553L0.260742 19.7564Z" fill="white"/>
<path d="M27.2108 34.8413C27.1427 35.0133 26.9574 35.0238 26.8288 35.1094C26.6074 35.2566 26.3645 35.3718 26.0908 35.3961C26.4562 35.1949 26.826 35.0027 27.2108 34.8413Z" fill="white"/>
<path d="M26.0711 35.4075C26.0622 35.5288 25.986 35.4789 25.9243 35.4651C25.9641 35.4225 26.0111 35.399 26.0711 35.4075Z" fill="white"/>
<path d="M25.8984 35.4814C25.8878 35.5435 25.844 35.5293 25.8035 35.5228C25.8241 35.4839 25.8635 35.4879 25.8984 35.4814Z" fill="white"/>
<path d="M25.7924 35.5283C25.7786 35.5591 25.7575 35.5717 25.7251 35.5551C25.7474 35.5462 25.7701 35.5372 25.7924 35.5283Z" fill="white"/>
<path d="M26.9184 19.0963C26.8649 19.0992 26.8556 19.0554 26.8568 19.0148C26.8604 18.9195 26.8373 18.821 26.914 18.7261C26.9338 18.8202 26.9561 18.9143 26.9724 19.0091C26.9788 19.0485 26.972 19.0939 26.9184 19.0963Z" fill="white"/>
<path d="M0.262101 19.7563V19.7577L0.260742 19.7563H0.262101Z" fill="white"/>
<path d="M0.327976 19.7272C0.325949 19.7304 0.323516 19.7336 0.320677 19.7361C0.30689 19.7491 0.284182 19.7531 0.261475 19.7564C0.263097 19.7438 0.262286 19.7304 0.262286 19.7174C0.262286 19.7138 0.262286 19.7105 0.262691 19.7073C0.262691 19.7024 0.263502 19.6971 0.264719 19.6923C0.266746 19.683 0.270801 19.6748 0.2781 19.6679C0.28256 19.6639 0.288643 19.6602 0.296347 19.657C0.304052 19.6542 0.33122 19.6752 0.332842 19.6878C0.335681 19.7053 0.333653 19.7178 0.327976 19.7272Z" fill="white"/>
<path d="M18.0184 17.8105V17.8119H18.0171L18.0184 17.8105Z" fill="white"/>
</g>
<defs>
<clipPath id="clip0_303_840">
<rect width="37" height="37" fill="white"/>
</clipPath>
</defs>
</svg>
